<svg xmlns="http://www.w3.org/2000/svg" xmlns:xlink="http://www.w3.org/1999/xlink" width="500" zoomAndPan="magnify" viewBox="0 0 375 374.999991" height="500" preserveAspectRatio="xMidYMid meet" version="1.0"><defs><g/><clipPath id="0e90c5598e"><path d="M 44.164062 44.164062 L 330.664062 44.164062 L 330.664062 330.664062 L 44.164062 330.664062 Z M 44.164062 44.164062 " clip-rule="nonzero"/></clipPath><clipPath id="2587fd79d6"><path d="M 187.496094 44.164062 C 108.335938 44.164062 44.164062 108.335938 44.164062 187.496094 C 44.164062 266.65625 108.335938 330.828125 187.496094 330.828125 C 266.65625 330.828125 330.828125 266.65625 330.828125 187.496094 C 330.828125 108.335938 266.65625 44.164062 187.496094 44.164062 Z M 187.496094 44.164062 " clip-rule="nonzero"/></clipPath></defs><g clip-path="url(#0e90c5598e)"><g clip-path="url(#2587fd79d6)"><path stroke-linecap="butt" transform="matrix(0.75, 0, 0, 0.75, 44.163074, 44.163069)" fill="none" stroke-linejoin="miter" d="M 191.110706 0.00132453 C 85.563824 0.00132453 0.00131853 85.56383 0.00131853 191.110712 C 0.00131853 296.657594 85.563824 382.2201 191.110706 382.2201 C 296.657588 382.2201 382.220094 296.657594 382.220094 191.110712 C 382.220094 85.56383 296.657588 0.00132453 191.110706 0.00132453 Z M 191.110706 0.00132453 " stroke="#3bffff" stroke-width="20" stroke-opacity="1" stroke-miterlimit="4"/></g></g><g fill="#e9128d" fill-opacity="1"><g transform="translate(113.584944, 197.913059)"><g><path d="M 19.046875 0 L 1.125 0 L 1.125 -22.40625 L 19.046875 -22.40625 C 19.859375 -22.40625 20.601562 -22.203125 21.28125 -21.796875 C 21.96875 -21.398438 22.507812 -20.859375 22.90625 -20.171875 C 23.3125 -19.492188 23.515625 -18.742188 23.515625 -17.921875 L 23.515625 -4.484375 C 23.515625 -3.660156 23.3125 -2.90625 22.90625 -2.21875 C 22.507812 -1.539062 21.96875 -1 21.28125 -0.59375 C 20.601562 -0.195312 19.859375 0 19.046875 0 Z M 5.59375 -17.921875 L 5.59375 -4.484375 L 19.046875 -4.484375 L 19.046875 -17.921875 Z M 5.59375 -17.921875 "/></g></g></g><g fill="#e9128d" fill-opacity="1"><g transform="translate(138.221589, 197.913059)"><g><path d="M 23.515625 -22.40625 L 23.515625 -17.921875 L 5.59375 -17.921875 L 5.59375 -13.4375 L 23.515625 -13.4375 L 23.515625 -8.953125 L 5.59375 -8.953125 L 5.59375 -4.484375 L 23.515625 -4.484375 L 23.515625 0 L 5.59375 0 C 4.78125 0 4.03125 -0.195312 3.34375 -0.59375 C 2.664062 -1 2.125 -1.539062 1.71875 -2.21875 C 1.320312 -2.90625 1.125 -3.660156 1.125 -4.484375 L 1.125 -17.921875 C 1.125 -18.742188 1.320312 -19.492188 1.71875 -20.171875 C 2.125 -20.859375 2.664062 -21.398438 3.34375 -21.796875 C 4.03125 -22.203125 4.78125 -22.40625 5.59375 -22.40625 Z M 23.515625 -22.40625 "/></g></g></g><g fill="#e9128d" fill-opacity="1"><g transform="translate(162.858234, 197.913059)"><g><path d="M 23.515625 -22.40625 L 23.515625 -17.921875 L 5.59375 -17.921875 L 5.59375 -13.4375 L 19.046875 -13.4375 C 19.859375 -13.4375 20.601562 -13.234375 21.28125 -12.828125 C 21.96875 -12.429688 22.507812 -11.890625 22.90625 -11.203125 C 23.3125 -10.523438 23.515625 -9.773438 23.515625 -8.953125 L 23.515625 -4.484375 C 23.515625 -3.660156 23.3125 -2.90625 22.90625 -2.21875 C 22.507812 -1.539062 21.96875 -1 21.28125 -0.59375 C 20.601562 -0.195312 19.859375 0 19.046875 0 L 1.125 0 L 1.125 -4.484375 L 19.046875 -4.484375 L 19.046875 -8.953125 L 5.59375 -8.953125 C 4.78125 -8.953125 4.03125 -9.148438 3.34375 -9.546875 C 2.664062 -9.953125 2.125 -10.492188 1.71875 -11.171875 C 1.320312 -11.859375 1.125 -12.613281 1.125 -13.4375 L 1.125 -17.921875 C 1.125 -18.742188 1.320312 -19.492188 1.71875 -20.171875 C 2.125 -20.859375 2.664062 -21.398438 3.34375 -21.796875 C 4.03125 -22.203125 4.78125 -22.40625 5.59375 -22.40625 Z M 23.515625 -22.40625 "/></g></g></g><g fill="#e9128d" fill-opacity="1"><g transform="translate(187.494879, 197.913059)"><g><path d="M 23.515625 0 L 1.125 0 L 1.125 -4.484375 L 10.078125 -4.484375 L 10.078125 -17.921875 L 1.125 -17.921875 L 1.125 -22.40625 L 23.515625 -22.40625 L 23.515625 -17.921875 L 14.5625 -17.921875 L 14.5625 -4.484375 L 23.515625 -4.484375 Z M 23.515625 0 "/></g></g></g><g fill="#e9128d" fill-opacity="1"><g transform="translate(212.131524, 197.913059)"><g><path d="M 23.515625 -22.40625 L 23.515625 -17.921875 L 5.59375 -17.921875 L 5.59375 -4.484375 L 19.046875 -4.484375 L 19.046875 -8.953125 L 10.078125 -8.953125 L 10.078125 -13.4375 L 23.515625 -13.4375 L 23.515625 -4.484375 C 23.515625 -3.679688 23.3125 -2.9375 22.90625 -2.25 C 22.507812 -1.570312 21.972656 -1.023438 21.296875 -0.609375 C 20.628906 -0.203125 19.878906 0 19.046875 0 L 5.59375 0 C 4.78125 0 4.03125 -0.195312 3.34375 -0.59375 C 2.664062 -1 2.125 -1.539062 1.71875 -2.21875 C 1.320312 -2.90625 1.125 -3.660156 1.125 -4.484375 L 1.125 -17.921875 C 1.125 -18.742188 1.320312 -19.492188 1.71875 -20.171875 C 2.125 -20.859375 2.664062 -21.398438 3.34375 -21.796875 C 4.03125 -22.203125 4.78125 -22.40625 5.59375 -22.40625 Z M 23.515625 -22.40625 "/></g></g></g><g fill="#e9128d" fill-opacity="1"><g transform="translate(236.768168, 197.913059)"><g><path d="M 5.59375 0 L 1.125 0 L 1.125 -20.15625 C 1.125 -20.769531 1.34375 -21.296875 1.78125 -21.734375 C 2.21875 -22.179688 2.742188 -22.40625 3.359375 -22.40625 C 3.972656 -22.40625 4.503906 -22.179688 4.953125 -21.734375 L 19.046875 -7.640625 L 19.046875 -22.40625 L 23.515625 -22.40625 L 23.515625 -2.234375 C 23.515625 -1.617188 23.296875 -1.09375 22.859375 -0.65625 C 22.421875 -0.21875 21.894531 0 21.28125 0 C 20.664062 0 20.132812 -0.222656 19.6875 -0.671875 L 5.59375 -14.75 Z M 5.59375 0 "/></g></g></g></svg>