<svg xmlns="http://www.w3.org/2000/svg" xmlns:xlink="http://www.w3.org/1999/xlink" width="500" zoomAndPan="magnify" viewBox="0 0 375 374.999991" height="500" preserveAspectRatio="xMidYMid meet" version="1.0"><defs><g/><clipPath id="f7ded56cbe"><path d="M 44.164062 44.164062 L 330.664062 44.164062 L 330.664062 330.664062 L 44.164062 330.664062 Z M 44.164062 44.164062 " clip-rule="nonzero"/></clipPath><clipPath id="085e9a9e3f"><path d="M 187.496094 44.164062 C 108.335938 44.164062 44.164062 108.335938 44.164062 187.496094 C 44.164062 266.65625 108.335938 330.828125 187.496094 330.828125 C 266.65625 330.828125 330.828125 266.65625 330.828125 187.496094 C 330.828125 108.335938 266.65625 44.164062 187.496094 44.164062 Z M 187.496094 44.164062 " clip-rule="nonzero"/></clipPath></defs><g clip-path="url(#f7ded56cbe)"><g clip-path="url(#085e9a9e3f)"><path stroke-linecap="butt" transform="matrix(0.75, 0, 0, 0.75, 44.163074, 44.163069)" fill="none" stroke-linejoin="miter" d="M 191.110706 0.00132453 C 85.563824 0.00132453 0.00131853 85.56383 0.00131853 191.110712 C 0.00131853 296.657594 85.563824 382.2201 191.110706 382.2201 C 296.657588 382.2201 382.220094 296.657594 382.220094 191.110712 C 382.220094 85.56383 296.657588 0.00132453 191.110706 0.00132453 Z M 191.110706 0.00132453 " stroke="#3bffff" stroke-width="20" stroke-opacity="1" stroke-miterlimit="4"/></g></g><g fill="#e9128d" fill-opacity="1"><g transform="translate(81.944321, 196.413059)"><g><path d="M 20.15625 0 L 0.953125 0 L 0.953125 -3.84375 L 8.640625 -3.84375 L 8.640625 -15.359375 L 0.953125 -15.359375 L 0.953125 -19.203125 L 20.15625 -19.203125 L 20.15625 -15.359375 L 12.484375 -15.359375 L 12.484375 -3.84375 L 20.15625 -3.84375 Z M 20.15625 0 "/></g></g></g><g fill="#e9128d" fill-opacity="1"><g transform="translate(103.053977, 196.413059)"><g><path d="M 4.796875 0 L 0.953125 0 L 0.953125 -17.28125 C 0.953125 -17.8125 1.140625 -18.265625 1.515625 -18.640625 C 1.898438 -19.015625 2.351562 -19.203125 2.875 -19.203125 C 3.40625 -19.203125 3.863281 -19.007812 4.25 -18.625 L 16.3125 -6.546875 L 16.3125 -19.203125 L 20.15625 -19.203125 L 20.15625 -1.921875 C 20.15625 -1.390625 19.96875 -0.9375 19.59375 -0.5625 C 19.21875 -0.1875 18.765625 0 18.234375 0 C 17.710938 0 17.257812 -0.191406 16.875 -0.578125 L 4.796875 -12.640625 Z M 4.796875 0 "/></g></g></g><g fill="#e9128d" fill-opacity="1"><g transform="translate(124.163633, 196.413059)"><g><path d="M 4.796875 0 L 0.953125 0 L 0.953125 -17.28125 C 0.953125 -17.8125 1.140625 -18.265625 1.515625 -18.640625 C 1.898438 -19.015625 2.351562 -19.203125 2.875 -19.203125 C 3.40625 -19.203125 3.863281 -19.007812 4.25 -18.625 L 16.3125 -6.546875 L 16.3125 -19.203125 L 20.15625 -19.203125 L 20.15625 -1.921875 C 20.15625 -1.390625 19.96875 -0.9375 19.59375 -0.5625 C 19.21875 -0.1875 18.765625 0 18.234375 0 C 17.710938 0 17.257812 -0.191406 16.875 -0.578125 L 4.796875 -12.640625 Z M 4.796875 0 "/></g></g></g><g fill="#e9128d" fill-opacity="1"><g transform="translate(145.273289, 196.413059)"><g><path d="M 16.3125 0 L 4.796875 0 C 4.097656 0 3.453125 -0.171875 2.859375 -0.515625 C 2.273438 -0.859375 1.8125 -1.320312 1.46875 -1.90625 C 1.125 -2.488281 0.953125 -3.132812 0.953125 -3.84375 L 0.953125 -15.359375 C 0.953125 -16.066406 1.125 -16.710938 1.46875 -17.296875 C 1.8125 -17.878906 2.273438 -18.34375 2.859375 -18.6875 C 3.453125 -19.03125 4.097656 -19.203125 4.796875 -19.203125 L 16.3125 -19.203125 C 17.019531 -19.203125 17.664062 -19.03125 18.25 -18.6875 C 18.832031 -18.34375 19.296875 -17.878906 19.640625 -17.296875 C 19.984375 -16.710938 20.15625 -16.066406 20.15625 -15.359375 L 20.15625 -3.84375 C 20.15625 -3.15625 19.984375 -2.519531 19.640625 -1.9375 C 19.296875 -1.351562 18.835938 -0.882812 18.265625 -0.53125 C 17.691406 -0.175781 17.039062 0 16.3125 0 Z M 4.796875 -15.359375 L 4.796875 -3.84375 L 16.3125 -3.84375 L 16.3125 -15.359375 Z M 4.796875 -15.359375 "/></g></g></g><g fill="#e9128d" fill-opacity="1"><g transform="translate(166.382946, 196.413059)"><g><path d="M 10.5625 0 C 9.695312 0 8.894531 -0.300781 8.15625 -0.90625 L 1.6875 -6.484375 C 1.195312 -6.910156 0.953125 -7.421875 0.953125 -8.015625 L 0.953125 -19.203125 L 4.796875 -19.203125 L 4.796875 -8.875 L 10.5625 -3.90625 L 16.3125 -8.875 L 16.3125 -19.203125 L 20.15625 -19.203125 L 20.140625 -8.015625 C 20.140625 -7.410156 19.90625 -6.898438 19.4375 -6.484375 L 12.953125 -0.90625 C 12.253906 -0.300781 11.457031 0 10.5625 0 Z M 10.5625 0 "/></g></g></g><g fill="#e9128d" fill-opacity="1"><g transform="translate(187.492602, 196.413059)"><g><path d="M 4.796875 -19.203125 L 16.3125 -19.203125 C 17.019531 -19.203125 17.664062 -19.03125 18.25 -18.6875 C 18.832031 -18.34375 19.296875 -17.878906 19.640625 -17.296875 C 19.984375 -16.710938 20.15625 -16.066406 20.15625 -15.359375 L 20.15625 0 L 16.3125 0 L 16.3125 -7.6875 L 4.796875 -7.6875 L 4.796875 0 L 0.953125 0 L 0.953125 -15.359375 C 0.953125 -16.066406 1.125 -16.710938 1.46875 -17.296875 C 1.8125 -17.878906 2.273438 -18.34375 2.859375 -18.6875 C 3.453125 -19.03125 4.097656 -19.203125 4.796875 -19.203125 Z M 4.796875 -15.359375 L 4.796875 -11.515625 L 16.3125 -11.515625 L 16.3125 -15.359375 Z M 4.796875 -15.359375 "/></g></g></g><g fill="#e9128d" fill-opacity="1"><g transform="translate(208.602258, 196.413059)"><g><path d="M 20.15625 -19.203125 L 20.15625 -15.359375 L 12.484375 -15.359375 L 12.484375 0 L 8.640625 0 L 8.640625 -15.359375 L 0.953125 -15.359375 L 0.953125 -19.203125 Z M 20.15625 -19.203125 "/></g></g></g><g fill="#e9128d" fill-opacity="1"><g transform="translate(229.711914, 196.413059)"><g><path d="M 20.15625 0 L 0.953125 0 L 0.953125 -3.84375 L 8.640625 -3.84375 L 8.640625 -15.359375 L 0.953125 -15.359375 L 0.953125 -19.203125 L 20.15625 -19.203125 L 20.15625 -15.359375 L 12.484375 -15.359375 L 12.484375 -3.84375 L 20.15625 -3.84375 Z M 20.15625 0 "/></g></g></g><g fill="#e9128d" fill-opacity="1"><g transform="translate(250.82157, 196.413059)"><g><path d="M 16.3125 0 L 4.796875 0 C 4.097656 0 3.453125 -0.171875 2.859375 -0.515625 C 2.273438 -0.859375 1.8125 -1.320312 1.46875 -1.90625 C 1.125 -2.488281 0.953125 -3.132812 0.953125 -3.84375 L 0.953125 -15.359375 C 0.953125 -16.066406 1.125 -16.710938 1.46875 -17.296875 C 1.8125 -17.878906 2.273438 -18.34375 2.859375 -18.6875 C 3.453125 -19.03125 4.097656 -19.203125 4.796875 -19.203125 L 16.3125 -19.203125 C 17.019531 -19.203125 17.664062 -19.03125 18.25 -18.6875 C 18.832031 -18.34375 19.296875 -17.878906 19.640625 -17.296875 C 19.984375 -16.710938 20.15625 -16.066406 20.15625 -15.359375 L 20.15625 -3.84375 C 20.15625 -3.15625 19.984375 -2.519531 19.640625 -1.9375 C 19.296875 -1.351562 18.835938 -0.882812 18.265625 -0.53125 C 17.691406 -0.175781 17.039062 0 16.3125 0 Z M 4.796875 -15.359375 L 4.796875 -3.84375 L 16.3125 -3.84375 L 16.3125 -15.359375 Z M 4.796875 -15.359375 "/></g></g></g><g fill="#e9128d" fill-opacity="1"><g transform="translate(271.931226, 196.413059)"><g><path d="M 4.796875 0 L 0.953125 0 L 0.953125 -17.28125 C 0.953125 -17.8125 1.140625 -18.265625 1.515625 -18.640625 C 1.898438 -19.015625 2.351562 -19.203125 2.875 -19.203125 C 3.40625 -19.203125 3.863281 -19.007812 4.25 -18.625 L 16.3125 -6.546875 L 16.3125 -19.203125 L 20.15625 -19.203125 L 20.15625 -1.921875 C 20.15625 -1.390625 19.96875 -0.9375 19.59375 -0.5625 C 19.21875 -0.1875 18.765625 0 18.234375 0 C 17.710938 0 17.257812 -0.191406 16.875 -0.578125 L 4.796875 -12.640625 Z M 4.796875 0 "/></g></g></g></svg>