<svg xmlns="http://www.w3.org/2000/svg" xmlns:xlink="http://www.w3.org/1999/xlink" width="500" zoomAndPan="magnify" viewBox="0 0 375 374.999991" height="500" preserveAspectRatio="xMidYMid meet" version="1.0"><defs><g/><clipPath id="0b7c88460f"><path d="M 44.164062 44.164062 L 330.664062 44.164062 L 330.664062 330.664062 L 44.164062 330.664062 Z M 44.164062 44.164062 " clip-rule="nonzero"/></clipPath><clipPath id="a48a5784f6"><path d="M 187.496094 44.164062 C 108.335938 44.164062 44.164062 108.335938 44.164062 187.496094 C 44.164062 266.65625 108.335938 330.828125 187.496094 330.828125 C 266.65625 330.828125 330.828125 266.65625 330.828125 187.496094 C 330.828125 108.335938 266.65625 44.164062 187.496094 44.164062 Z M 187.496094 44.164062 " clip-rule="nonzero"/></clipPath></defs><g clip-path="url(#0b7c88460f)"><g clip-path="url(#a48a5784f6)"><path stroke-linecap="butt" transform="matrix(0.75, 0, 0, 0.75, 44.163074, 44.163069)" fill="none" stroke-linejoin="miter" d="M 191.110706 0.00132453 C 85.563824 0.00132453 0.00131853 85.56383 0.00131853 191.110712 C 0.00131853 296.657594 85.563824 382.2201 191.110706 382.2201 C 296.657588 382.2201 382.220094 296.657594 382.220094 191.110712 C 382.220094 85.56383 296.657588 0.00132453 191.110706 0.00132453 Z M 191.110706 0.00132453 " stroke="#3bffff" stroke-width="20" stroke-opacity="1" stroke-miterlimit="4"/></g></g><g fill="#e9128d" fill-opacity="1"><g transform="translate(84.557602, 197.913059)"><g><path d="M 21.84375 -20.796875 L 21.84375 -16.640625 L 5.203125 -16.640625 L 5.203125 -12.484375 L 17.6875 -12.484375 C 18.445312 -12.484375 19.140625 -12.296875 19.765625 -11.921875 C 20.398438 -11.546875 20.90625 -11.039062 21.28125 -10.40625 C 21.65625 -9.78125 21.84375 -9.082031 21.84375 -8.3125 L 21.84375 -4.15625 C 21.84375 -3.394531 21.65625 -2.695312 21.28125 -2.0625 C 20.90625 -1.4375 20.398438 -0.9375 19.765625 -0.5625 C 19.140625 -0.1875 18.445312 0 17.6875 0 L 1.046875 0 L 1.046875 -4.15625 L 17.6875 -4.15625 L 17.6875 -8.3125 L 5.203125 -8.3125 C 4.441406 -8.3125 3.742188 -8.5 3.109375 -8.875 C 2.472656 -9.25 1.96875 -9.753906 1.59375 -10.390625 C 1.226562 -11.023438 1.046875 -11.722656 1.046875 -12.484375 L 1.046875 -16.640625 C 1.046875 -17.398438 1.226562 -18.097656 1.59375 -18.734375 C 1.96875 -19.367188 2.472656 -19.867188 3.109375 -20.234375 C 3.742188 -20.609375 4.441406 -20.796875 5.203125 -20.796875 Z M 21.84375 -20.796875 "/></g></g></g><g fill="#e9128d" fill-opacity="1"><g transform="translate(107.430747, 197.913059)"><g><path d="M 17.6875 0 L 5.203125 0 C 4.441406 0 3.742188 -0.1875 3.109375 -0.5625 C 2.472656 -0.9375 1.96875 -1.4375 1.59375 -2.0625 C 1.226562 -2.695312 1.046875 -3.394531 1.046875 -4.15625 L 1.046875 -16.640625 C 1.046875 -17.398438 1.226562 -18.097656 1.59375 -18.734375 C 1.96875 -19.367188 2.472656 -19.867188 3.109375 -20.234375 C 3.742188 -20.609375 4.441406 -20.796875 5.203125 -20.796875 L 17.6875 -20.796875 C 18.445312 -20.796875 19.140625 -20.609375 19.765625 -20.234375 C 20.398438 -19.867188 20.90625 -19.367188 21.28125 -18.734375 C 21.65625 -18.097656 21.84375 -17.398438 21.84375 -16.640625 L 21.84375 -4.15625 C 21.84375 -3.414062 21.65625 -2.726562 21.28125 -2.09375 C 20.90625 -1.457031 20.40625 -0.945312 19.78125 -0.5625 C 19.15625 -0.1875 18.457031 0 17.6875 0 Z M 5.203125 -16.640625 L 5.203125 -4.15625 L 17.6875 -4.15625 L 17.6875 -16.640625 Z M 5.203125 -16.640625 "/></g></g></g><g fill="#e9128d" fill-opacity="1"><g transform="translate(130.303891, 197.913059)"><g><path d="M 21.84375 0 L 5.203125 0 C 4.441406 0 3.742188 -0.1875 3.109375 -0.5625 C 2.472656 -0.9375 1.96875 -1.4375 1.59375 -2.0625 C 1.226562 -2.695312 1.046875 -3.394531 1.046875 -4.15625 L 1.046875 -20.796875 L 5.203125 -20.796875 L 5.203125 -4.15625 L 21.84375 -4.15625 Z M 21.84375 0 "/></g></g></g><g fill="#e9128d" fill-opacity="1"><g transform="translate(153.177036, 197.913059)"><g><path d="M 17.6875 0 L 5.203125 0 C 4.441406 0 3.742188 -0.1875 3.109375 -0.5625 C 2.472656 -0.9375 1.96875 -1.4375 1.59375 -2.0625 C 1.226562 -2.695312 1.046875 -3.394531 1.046875 -4.15625 L 1.046875 -20.796875 L 5.203125 -20.796875 L 5.203125 -4.15625 L 17.6875 -4.15625 L 17.6875 -20.796875 L 21.84375 -20.796875 L 21.84375 -4.15625 C 21.84375 -3.394531 21.65625 -2.695312 21.28125 -2.0625 C 20.90625 -1.4375 20.398438 -0.9375 19.765625 -0.5625 C 19.140625 -0.1875 18.445312 0 17.6875 0 Z M 17.6875 0 "/></g></g></g><g fill="#e9128d" fill-opacity="1"><g transform="translate(176.05018, 197.913059)"><g><path d="M 21.84375 -20.796875 L 21.84375 -16.640625 L 13.515625 -16.640625 L 13.515625 0 L 9.359375 0 L 9.359375 -16.640625 L 1.046875 -16.640625 L 1.046875 -20.796875 Z M 21.84375 -20.796875 "/></g></g></g><g fill="#e9128d" fill-opacity="1"><g transform="translate(198.923325, 197.913059)"><g><path d="M 21.84375 0 L 1.046875 0 L 1.046875 -4.15625 L 9.359375 -4.15625 L 9.359375 -16.640625 L 1.046875 -16.640625 L 1.046875 -20.796875 L 21.84375 -20.796875 L 21.84375 -16.640625 L 13.515625 -16.640625 L 13.515625 -4.15625 L 21.84375 -4.15625 Z M 21.84375 0 "/></g></g></g><g fill="#e9128d" fill-opacity="1"><g transform="translate(221.796469, 197.913059)"><g><path d="M 17.6875 0 L 5.203125 0 C 4.441406 0 3.742188 -0.1875 3.109375 -0.5625 C 2.472656 -0.9375 1.96875 -1.4375 1.59375 -2.0625 C 1.226562 -2.695312 1.046875 -3.394531 1.046875 -4.15625 L 1.046875 -16.640625 C 1.046875 -17.398438 1.226562 -18.097656 1.59375 -18.734375 C 1.96875 -19.367188 2.472656 -19.867188 3.109375 -20.234375 C 3.742188 -20.609375 4.441406 -20.796875 5.203125 -20.796875 L 17.6875 -20.796875 C 18.445312 -20.796875 19.140625 -20.609375 19.765625 -20.234375 C 20.398438 -19.867188 20.90625 -19.367188 21.28125 -18.734375 C 21.65625 -18.097656 21.84375 -17.398438 21.84375 -16.640625 L 21.84375 -4.15625 C 21.84375 -3.414062 21.65625 -2.726562 21.28125 -2.09375 C 20.90625 -1.457031 20.40625 -0.945312 19.78125 -0.5625 C 19.15625 -0.1875 18.457031 0 17.6875 0 Z M 5.203125 -16.640625 L 5.203125 -4.15625 L 17.6875 -4.15625 L 17.6875 -16.640625 Z M 5.203125 -16.640625 "/></g></g></g><g fill="#e9128d" fill-opacity="1"><g transform="translate(244.669614, 197.913059)"><g><path d="M 5.203125 0 L 1.046875 0 L 1.046875 -18.71875 C 1.046875 -19.289062 1.25 -19.78125 1.65625 -20.1875 C 2.0625 -20.59375 2.550781 -20.796875 3.125 -20.796875 C 3.695312 -20.796875 4.191406 -20.585938 4.609375 -20.171875 L 17.6875 -7.09375 L 17.6875 -20.796875 L 21.84375 -20.796875 L 21.84375 -2.078125 C 21.84375 -1.503906 21.640625 -1.015625 21.234375 -0.609375 C 20.828125 -0.203125 20.335938 0 19.765625 0 C 19.191406 0 18.695312 -0.207031 18.28125 -0.625 L 5.203125 -13.703125 Z M 5.203125 0 "/></g></g></g><g fill="#e9128d" fill-opacity="1"><g transform="translate(267.542758, 197.913059)"><g><path d="M 21.84375 -20.796875 L 21.84375 -16.640625 L 5.203125 -16.640625 L 5.203125 -12.484375 L 17.6875 -12.484375 C 18.445312 -12.484375 19.140625 -12.296875 19.765625 -11.921875 C 20.398438 -11.546875 20.90625 -11.039062 21.28125 -10.40625 C 21.65625 -9.78125 21.84375 -9.082031 21.84375 -8.3125 L 21.84375 -4.15625 C 21.84375 -3.394531 21.65625 -2.695312 21.28125 -2.0625 C 20.90625 -1.4375 20.398438 -0.9375 19.765625 -0.5625 C 19.140625 -0.1875 18.445312 0 17.6875 0 L 1.046875 0 L 1.046875 -4.15625 L 17.6875 -4.15625 L 17.6875 -8.3125 L 5.203125 -8.3125 C 4.441406 -8.3125 3.742188 -8.5 3.109375 -8.875 C 2.472656 -9.25 1.96875 -9.753906 1.59375 -10.390625 C 1.226562 -11.023438 1.046875 -11.722656 1.046875 -12.484375 L 1.046875 -16.640625 C 1.046875 -17.398438 1.226562 -18.097656 1.59375 -18.734375 C 1.96875 -19.367188 2.472656 -19.867188 3.109375 -20.234375 C 3.742188 -20.609375 4.441406 -20.796875 5.203125 -20.796875 Z M 21.84375 -20.796875 "/></g></g></g></svg>